{
  "accessors": [
    {
      "bufferView": 2,
      "componentType": 5126,
      "count": 174,
      "max": [
        18.64765739440918,
        17.7349796295166,
        51.55809783935547
      ],
      "min": [
        -18.647661209106445,
        -17.734975814819336,
        37.442447662353516
      ],
      "type": "VEC3"
    },
    {
      "bufferView": 2,
      "byteOffset": 2088,
      "componentType": 5126,
      "count": 174,
      "max": [
        1.0,
        0.9510565996170044,
        1.0
      ],
      "min": [
        -1.0,
        -0.9510565996170044,
        -1.0
      ],
      "type": "VEC3"
    },
    {
      "bufferView": 1,
      "componentType": 5126,
      "count": 174,
      "max": [
        0.39168980717658997,
        0.7049418687820435
      ],
      "min": [
        0.050377681851387024,
        0.3143713176250458
      ],
      "type": "VEC2"
    },
    {
      "bufferView": 0,
      "componentType": 5125,
      "count": 480,
      "type": "SCALAR"
    },
    {
      "bufferView": 2,
      "byteOffset": 4176,
      "componentType": 5126,
      "count": 174,
      "max": [
        18.647659301757813,
        17.734975814819336,
        -37.44244384765625
      ],
      "min": [
        -18.647659301757813,
        -17.734981536865234,
        -51.55809783935547
      ],
      "type": "VEC3"
    },
    {
      "bufferView": 2,
      "byteOffset": 6264,
      "componentType": 5126,
      "count": 174,
      "max": [
        1.0,
        0.9510565996170044,
        1.0
      ],
      "min": [
        -1.0,
        -0.9510565996170044,
        -1.0
      ],
      "type": "VEC3"
    },
    {
      "bufferView": 1,
      "byteOffset": 1392,
      "componentType": 5126,
      "count": 174,
      "max": [
        0.39168980717658997,
        0.7049418687820435
      ],
      "min": [
        0.050377681851387024,
        0.3143713176250458
      ],
      "type": "VEC2"
    },
    {
      "bufferView": 0,
      "byteOffset": 1920,
      "componentType": 5125,
      "count": 480,
      "type": "SCALAR"
    },
    {
      "bufferView": 2,
      "byteOffset": 8352,
      "componentType": 5126,
      "count": 174,
      "max": [
        18.64765739440918,
        17.7349796295166,
        51.55809783935547
      ],
      "min": [
        -18.647661209106445,
        -17.734975814819336,
        37.442447662353516
      ],
      "type": "VEC3"
    },
    {
      "bufferView": 2,
      "byteOffset": 10440,
      "componentType": 5126,
      "count": 174,
      "max": [
        1.0,
        0.9510565996170044,
        1.0
      ],
      "min": [
        -1.0,
        -0.9510565996170044,
        -1.0
      ],
      "type": "VEC3"
    },
    {
      "bufferView": 1,
      "byteOffset": 2784,
      "componentType": 5126,
      "count": 174,
      "max": [
        0.39168980717658997,
        0.7049418687820435
      ],
      "min": [
        0.050377681851387024,
        0.3143713176250458
      ],
      "type": "VEC2"
    },
    {
      "bufferView": 0,
      "byteOffset": 3840,
      "componentType": 5125,
      "count": 480,
      "type": "SCALAR"
    },
    {
      "bufferView": 2,
      "byteOffset": 12528,
      "componentType": 5126,
      "count": 174,
      "max": [
        18.647659301757813,
        17.734975814819336,
        -37.44244384765625
      ],
      "min": [
        -18.647659301757813,
        -17.734981536865234,
        -51.55809783935547
      ],
      "type": "VEC3"
    },
    {
      "bufferView": 2,
      "byteOffset": 14616,
      "componentType": 5126,
      "count": 174,
      "max": [
        1.0,
        0.9510565996170044,
        1.0
      ],
      "min": [
        -1.0,
        -0.9510565996170044,
        -1.0
      ],
      "type": "VEC3"
    },
    {
      "bufferView": 1,
      "byteOffset": 4176,
      "componentType": 5126,
      "count": 174,
      "max": [
        0.39168980717658997,
        0.7049418687820435
      ],
      "min": [
        0.050377681851387024,
        0.3143713176250458
      ],
      "type": "VEC2"
    },
    {
      "bufferView": 0,
      "byteOffset": 5760,
      "componentType": 5125,
      "count": 480,
      "type": "SCALAR"
    },
    {
      "bufferView": 2,
      "byteOffset": 16704,
      "componentType": 5126,
      "count": 4346,
      "max": [
        9.116315841674805,
        205.9730224609375,
        141.8974151611328
      ],
      "min": [
        -114.96218872070313,
        -41.74945068359375,
        -34.010955810546875
      ],
      "type": "VEC3"
    },
    {
      "bufferView": 2,
      "byteOffset": 68856,
      "componentType": 5126,
      "count": 4346,
      "max": [
        1.0,
        1.0,
        1.0
      ],
      "min": [
        -1.0,
        -1.0,
        -1.0
      ],
      "type": "VEC3"
    },
    {
      "bufferView": 1,
      "byteOffset": 5568,
      "componentType": 5126,
      "count": 4346,
      "max": [
        0.9704000353813171,
        0.9467257857322693
      ],
      "min": [
        0.01946578174829483,
        0.021405823528766632
      ],
      "type": "VEC2"
    },
    {
      "bufferView": 0,
      "byteOffset": 7680,
      "componentType": 5125,
      "count": 7941,
      "type": "SCALAR"
    }
  ],
  "asset": {
    "extras": {
      "author": "Sidra (https://sketchfab.com/Sidramax)",
      "license": "CC-BY-4.0 (http://creativecommons.org/licenses/by/4.0/)",
      "source": "https://sketchfab.com/3d-models/ice-cream-car-low-poly-83900ff5231944569eda3ee2bc98a230",
      "title": "Ice Cream Car Low_Poly"
    },
    "generator": "Sketchfab-15.55.0",
    "version": "2.0"
  },
  "bufferViews": [
    {
      "buffer": 0,
      "byteLength": 39444,
      "name": "floatBufferViews",
      "target": 34963
    },
    {
      "buffer": 0,
      "byteLength": 40336,
      "byteOffset": 39444,
      "byteStride": 8,
      "name": "floatBufferViews",
      "target": 34962
    },
    {
      "buffer": 0,
      "byteLength": 121008,
      "byteOffset": 79780,
      "byteStride": 12,
      "name": "floatBufferViews",
      "target": 34962
    }
  ],
  "buffers": [
    {
      "byteLength": 200788,
      "uri": "scene.bin"
    }
  ],
  "extensionsUsed": [
    "KHR_materials_clearcoat"
  ],
  "images": [
    {
      "uri": "textures/Textures_baseColor.png"
    }
  ],
  "materials": [
    {
      "doubleSided": true,
      "extensions": {
        "KHR_materials_clearcoat": {
          "clearcoatFactor": 1.0,
          "clearcoatRoughnessFactor": 0.04
        }
      },
      "name": "Textures",
      "pbrMetallicRoughness": {
        "baseColorTexture": {
          "index": 0
        },
        "metallicFactor": 0.5937795718907191,
        "roughnessFactor": 0.8929713596497552
      }
    }
  ],
  "meshes": [
    {
      "name": "Wheel_BL_Textures_0",
      "primitives": [
        {
          "attributes": {
            "NORMAL": 1,
            "POSITION": 0,
            "TEXCOORD_0": 2
          },
          "indices": 3,
          "material": 0,
          "mode": 4
        }
      ]
    },
    {
      "name": "Wheel_BR_Textures_0",
      "primitives": [
        {
          "attributes": {
            "NORMAL": 5,
            "POSITION": 4,
            "TEXCOORD_0": 6
          },
          "indices": 7,
          "material": 0,
          "mode": 4
        }
      ]
    },
    {
      "name": "Wheel_FL_Textures_0",
      "primitives": [
        {
          "attributes": {
            "NORMAL": 9,
            "POSITION": 8,
            "TEXCOORD_0": 10
          },
          "indices": 11,
          "material": 0,
          "mode": 4
        }
      ]
    },
    {
      "name": "Wheel_FR_Textures_0",
      "primitives": [
        {
          "attributes": {
            "NORMAL": 13,
            "POSITION": 12,
            "TEXCOORD_0": 14
          },
          "indices": 15,
          "material": 0,
          "mode": 4
        }
      ]
    },
    {
      "name": "Body_Textures_0",
      "primitives": [
        {
          "attributes": {
            "NORMAL": 17,
            "POSITION": 16,
            "TEXCOORD_0": 18
          },
          "indices": 19,
          "material": 0,
          "mode": 4
        }
      ]
    }
  ],
  "nodes": [
    {
      "children": [
        1
      ],
      "matrix": [
        1.0,
        0.0,
        0.0,
        0.0,
        0.0,
        2.220446049250313e-16,
        -1.0,
        0.0,
        0.0,
        1.0,
        2.220446049250313e-16,
        0.0,
        0.0,
        0.0,
        0.0,
        1.0
      ],
      "name": "Sketchfab_model"
    },
    {
      "children": [
        2
      ],
      "matrix": [
        0.009999999776482582,
        0.0,
        0.0,
        0.0,
        0.0,
        -0.009999999776482582,
        0.0,
        0.0,
        0.0,
        0.0,
        -0.009999999776482582,
        0.0,
        0.0,
        0.0,
        0.0,
        1.0
      ],
      "name": "Ice Cream Car.FBX"
    },
    {
      "children": [
        3,
        6,
        9,
        12,
        15
      ],
      "name": "RootNode"
    },
    {
      "children": [
        4
      ],
      "matrix": [
        -2.5399999618530176,
        3.1106031269328543e-16,
        2.220538491617137e-07,
        0.0,
        -2.2205384916171078e-07,
        -4.1381852226028753e-07,
        -2.5399999618529843,
        0.0,
        3.5866103893444844e-14,
        -2.5399999618529936,
        4.138185219782909e-07,
        0.0,
        -126.4164810180664,
        171.07537841796875,
        144.35902404785156,
        1.0
      ],
      "name": "Wheel_BL"
    },
    {
      "children": [
        5
      ],
      "matrix": [
        6.848336445981305e-17,
        0.0,
        -1.11841821670532,
        0.0,
        -4.713797656395104e-08,
        1.1184222698211692,
        -2.8863686058662797e-24,
        0.0,
        1.118422031402589,
        4.713796651535871e-08,
        6.848359804265305e-17,
        0.0,
        -49.770263671875,
        -3.81468998966739e-06,
        3.81468998966739e-06,
        1.0
      ],
      "name": "Object_4"
    },
    {
      "mesh": 0,
      "name": "Wheel_BL_Textures_0"
    },
    {
      "children": [
        7
      ],
      "matrix": [
        -2.5399999618530176,
        3.1106031269328543e-16,
        2.220538491617137e-07,
        0.0,
        -2.2205384916171078e-07,
        -4.1381852226028753e-07,
        -2.5399999618529843,
        0.0,
        3.5866103893444844e-14,
        -2.5399999618529936,
        4.138185219782909e-07,
        0.0,
        126.41647338867188,
        171.0753936767578,
        144.35902404785156,
        1.0
      ],
      "name": "Wheel_BR"
    },
    {
      "children": [
        8
      ],
      "matrix": [
        6.848336445981305e-17,
        0.0,
        -1.11841821670532,
        0.0,
        -4.713797656395104e-08,
        1.1184222698211692,
        -2.8863686058662797e-24,
        0.0,
        1.118422031402589,
        4.713796651535871e-08,
        6.848359804265305e-17,
        0.0,
        49.7702598571777,
        5.72203134652227e-06,
        8.33726398466114e-14,
        1.0
      ],
      "name": "Object_7"
    },
    {
      "mesh": 1,
      "name": "Wheel_BR_Textures_0"
    },
    {
      "children": [
        10
      ],
      "matrix": [
        -2.5399999618530176,
        3.1106031269328543e-16,
        2.220538491617137e-07,
        0.0,
        -2.2205384916171078e-07,
        -4.1381852226028753e-07,
        -2.5399999618529843,
        0.0,
        3.5866103893444844e-14,
        -2.5399999618529936,
        4.138185219782909e-07,
        0.0,
        -126.4164810180664,
        -250.1429901123047,
        144.35903930664063,
        1.0
      ],
      "name": "Wheel_FL"
    },
    {
      "children": [
        11
      ],
      "matrix": [
        6.848336445981305e-17,
        0.0,
        -1.11841821670532,
        0.0,
        -4.713797656395104e-08,
        1.1184222698211692,
        -2.8863686058662797e-24,
        0.0,
        1.118422031402589,
        4.713796651535871e-08,
        6.848359804265305e-17,
        0.0,
        -49.770263671875,
        -3.81468998966739e-06,
        1.66745279693223e-13,
        1.0
      ],
      "name": "Object_10"
    },
    {
      "mesh": 2,
      "name": "Wheel_FL_Textures_0"
    },
    {
      "children": [
        13
      ],
      "matrix": [
        -2.5399999618530176,
        3.1106031269328543e-16,
        2.220538491617137e-07,
        0.0,
        -2.2205384916171078e-07,
        -4.1381852226028753e-07,
        -2.5399999618529843,
        0.0,
        3.5866103893444844e-14,
        -2.5399999618529936,
        4.138185219782909e-07,
        0.0,
        126.41647338867188,
        -250.1429443359375,
        144.35903930664063,
        1.0
      ],
      "name": "Wheel_FR"
    },
    {
      "children": [
        14
      ],
      "matrix": [
        6.848336445981305e-17,
        0.0,
        -1.11841821670532,
        0.0,
        -4.713797656395104e-08,
        1.1184222698211692,
        -2.8863686058662797e-24,
        0.0,
        1.118422031402589,
        4.713796651535871e-08,
        6.848359804265305e-17,
        0.0,
        49.7702598571777,
        5.72203134652227e-06,
        8.33726398466114e-14,
        1.0
      ],
      "name": "Object_13"
    },
    {
      "mesh": 3,
      "name": "Wheel_FR_Textures_0"
    },
    {
      "children": [
        16
      ],
      "matrix": [
        -2.5399999618530176,
        3.1106031269328543e-16,
        2.220538491617137e-07,
        0.0,
        -2.2205384916171078e-07,
        -4.1381852226028753e-07,
        -2.5399999618529843,
        0.0,
        3.5866103893444844e-14,
        -2.5399999618529936,
        4.138185219782909e-07,
        0.0,
        1.626424455025699e-05,
        -4.630484367650824e-21,
        194.74972534179688,
        1.0
      ],
      "name": "Body"
    },
    {
      "children": [
        17
      ],
      "matrix": [
        1.11842608451843,
        0.0,
        0.0,
        0.0,
        0.0,
        6.848361264158067e-17,
        -1.11842226982117,
        0.0,
        -0.0,
        1.11842226982117,
        6.848361264158067e-17,
        0.0,
        59.1903915405273,
        51.9960823059082,
        91.8357009887695,
        1.0
      ],
      "name": "Object_16"
    },
    {
      "mesh": 4,
      "name": "Body_Textures_0"
    }
  ],
  "samplers": [
    {
      "magFilter": 9729,
      "minFilter": 9987,
      "wrapS": 10497,
      "wrapT": 10497
    }
  ],
  "scene": 0,
  "scenes": [
    {
      "name": "Sketchfab_Scene",
      "nodes": [
        0
      ]
    }
  ],
  "textures": [
    {
      "sampler": 0,
      "source": 0
    }
  ]
}
