{
  "accessors": [
    {
      "bufferView": 2,
      "componentType": 5126,
      "count": 4383,
      "max": [
        209.9507293701172,
        209.690185546875,
        68.90796661376953
      ],
      "min": [
        -161.87400817871094,
        -41.92680358886719,
        -68.90799713134766
      ],
      "type": "VEC3"
    },
    {
      "bufferView": 2,
      "byteOffset": 52596,
      "componentType": 5126,
      "count": 4383,
      "max": [
        1.0,
        1.0,
        1.0
      ],
      "min": [
        -1.0,
        -1.0,
        -1.0
      ],
      "type": "VEC3"
    },
    {
      "bufferView": 3,
      "componentType": 5126,
      "count": 4383,
      "max": [
        1.0,
        0.9999998807907104,
        1.0,
        1.0
      ],
      "min": [
        -0.9999998211860657,
        -0.9999998211860657,
        -0.9999998211860657,
        -1.0
      ],
      "type": "VEC4"
    },
    {
      "bufferView": 1,
      "componentType": 5126,
      "count": 4383,
      "max": [
        0.9937883615493774,
        0.994266152381897
      ],
      "min": [
        0.004396617412567139,
        0.0012249213177710772
      ],
      "type": "VEC2"
    },
    {
      "bufferView": 1,
      "byteOffset": 35064,
      "componentType": 5126,
      "count": 4383,
      "max": [
        0.9937883615493774,
        0.994266152381897
      ],
      "min": [
        0.004396617412567139,
        0.0012249213177710772
      ],
      "type": "VEC2"
    },
    {
      "bufferView": 1,
      "byteOffset": 70128,
      "componentType": 5126,
      "count": 4383,
      "max": [
        0.9937883615493774,
        0.994266152381897
      ],
      "min": [
        0.004396617412567139,
        0.0012249213177710772
      ],
      "type": "VEC2"
    },
    {
      "bufferView": 0,
      "componentType": 5125,
      "count": 17832,
      "type": "SCALAR"
    }
  ],
  "asset": {
    "extras": {
      "author": "stylo0 (https://sketchfab.com/stylo0)",
      "license": "SKETCHFAB Standard (https://sketchfab.com/licenses)",
      "source": "https://sketchfab.com/3d-models/scooter-simple-3b948ec1a8a64979bc12914c50c665a3",
      "title": "scooter simple"
    },
    "generator": "Sketchfab-15.55.0",
    "version": "2.0"
  },
  "bufferViews": [
    {
      "buffer": 0,
      "byteLength": 71328,
      "name": "floatBufferViews",
      "target": 34963
    },
    {
      "buffer": 0,
      "byteLength": 105192,
      "byteOffset": 71328,
      "byteStride": 8,
      "name": "floatBufferViews",
      "target": 34962
    },
    {
      "buffer": 0,
      "byteLength": 105192,
      "byteOffset": 176520,
      "byteStride": 12,
      "name": "floatBufferViews",
      "target": 34962
    },
    {
      "buffer": 0,
      "byteLength": 70128,
      "byteOffset": 281712,
      "byteStride": 16,
      "name": "floatBufferViews",
      "target": 34962
    }
  ],
  "buffers": [
    {
      "byteLength": 351840,
      "uri": "scene.bin"
    }
  ],
  "images": [
    {
      "uri": "textures/bluewithrust_baseColor.png"
    },
    {
      "uri": "textures/bluewithrust_metallicRoughness.png"
    },
    {
      "uri": "textures/bluewithrust_normal.png"
    }
  ],
  "materials": [
    {
      "doubleSided": true,
      "name": "bluewithrust",
      "normalTexture": {
        "index": 2
      },
      "pbrMetallicRoughness": {
        "baseColorTexture": {
          "index": 0
        },
        "metallicRoughnessTexture": {
          "index": 1
        }
      }
    }
  ],
  "meshes": [
    {
      "name": "lowpolybase.002_bluewithrust_0",
      "primitives": [
        {
          "attributes": {
            "NORMAL": 1,
            "POSITION": 0,
            "TANGENT": 2,
            "TEXCOORD_0": 3,
            "TEXCOORD_1": 4,
            "TEXCOORD_2": 5
          },
          "indices": 6,
          "material": 0,
          "mode": 4
        }
      ]
    }
  ],
  "nodes": [
    {
      "children": [
        1
      ],
      "matrix": [
        1.0,
        -1.6081226229577292e-16,
        -3.5707495248565405e-32,
        0.0,
        0.0,
        2.220446049250313e-16,
        -1.0,
        0.0,
        1.6081226229577292e-16,
        1.0,
        2.220446049250313e-16,
        0.0,
        0.0,
        0.0,
        0.0,
        1.0
      ],
      "name": "Sketchfab_model"
    },
    {
      "children": [
        2
      ],
      "matrix": [
        0.009999999776482582,
        0.0,
        0.0,
        0.0,
        0.0,
        0.0,
        0.009999999776482582,
        0.0,
        0.0,
        -0.009999999776482582,
        0.0,
        0.0,
        0.0,
        0.0,
        0.0,
        1.0
      ],
      "name": "0166761519a547ce93d7ec1cbbce5497.fbx"
    },
    {
      "children": [
        3
      ],
      "name": "RootNode"
    },
    {
      "children": [
        4
      ],
      "matrix": [
        1.0,
        0.0,
        0.0,
        0.0,
        0.0,
        1.0,
        0.0,
        0.0,
        0.0,
        0.0,
        1.0,
        0.0,
        35.625633239746094,
        41.550933837890625,
        -8.24959659576416,
        1.0
      ],
      "name": "lowpolybase.002"
    },
    {
      "mesh": 0,
      "name": "lowpolybase.002_bluewithrust_0"
    }
  ],
  "samplers": [
    {
      "magFilter": 9729,
      "minFilter": 9987,
      "wrapS": 10497,
      "wrapT": 10497
    }
  ],
  "scene": 0,
  "scenes": [
    {
      "name": "Sketchfab_Scene",
      "nodes": [
        0
      ]
    }
  ],
  "textures": [
    {
      "sampler": 0,
      "source": 0
    },
    {
      "sampler": 0,
      "source": 1
    },
    {
      "sampler": 0,
      "source": 2
    }
  ]
}
