{
  "accessors": [
    {
      "bufferView": 2,
      "componentType": 5126,
      "count": 9984,
      "max": [
        15.747536659240723,
        5.709484100341797,
        1.2910670042037964
      ],
      "min": [
        -15.964632034301758,
        -46.12173843383789,
        -1.0367599725723267
      ],
      "type": "VEC3"
    },
    {
      "bufferView": 2,
      "byteOffset": 119808,
      "componentType": 5126,
      "count": 9984,
      "max": [
        1.0,
        1.0,
        1.0
      ],
      "min": [
        -1.0,
        -1.0,
        -1.0
      ],
      "type": "VEC3"
    },
    {
      "bufferView": 3,
      "componentType": 5126,
      "count": 9984,
      "max": [
        1.0,
        1.0,
        0.012671987526118755,
        1.0
      ],
      "min": [
        -1.0,
        -1.0,
        -1.3416903357210685e-06,
        -1.0
      ],
      "type": "VEC4"
    },
    {
      "bufferView": 1,
      "componentType": 5126,
      "count": 9984,
      "max": [
        2.030471086502075,
        0.8065990209579468
      ],
      "min": [
        -1.0154390335083008,
        0.0874669998884201
      ],
      "type": "VEC2"
    },
    {
      "bufferView": 0,
      "componentType": 5125,
      "count": 14976,
      "type": "SCALAR"
    },
    {
      "bufferView": 2,
      "byteOffset": 239616,
      "componentType": 5126,
      "count": 6304,
      "max": [
        15.747536659240723,
        15.88381576538086,
        1.2910670042037964
      ],
      "min": [
        -15.964632034301758,
        -35.98348617553711,
        -1.0367599725723267
      ],
      "type": "VEC3"
    },
    {
      "bufferView": 2,
      "byteOffset": 315264,
      "componentType": 5126,
      "count": 6304,
      "max": [
        1.0,
        1.0,
        1.0
      ],
      "min": [
        -1.0,
        -1.0,
        -1.0
      ],
      "type": "VEC3"
    },
    {
      "bufferView": 3,
      "byteOffset": 159744,
      "componentType": 5126,
      "count": 6304,
      "max": [
        1.0,
        1.0,
        0.012671987526118755,
        1.0
      ],
      "min": [
        -1.0,
        -1.0,
        -1.3416903357210685e-06,
        -1.0
      ],
      "type": "VEC4"
    },
    {
      "bufferView": 1,
      "byteOffset": 79872,
      "componentType": 5126,
      "count": 6304,
      "max": [
        2.030471086502075,
        0.8065990209579468
      ],
      "min": [
        -1.0154390335083008,
        0.0874669998884201
      ],
      "type": "VEC2"
    },
    {
      "bufferView": 0,
      "byteOffset": 59904,
      "componentType": 5125,
      "count": 9456,
      "type": "SCALAR"
    },
    {
      "bufferView": 2,
      "byteOffset": 390912,
      "componentType": 5126,
      "count": 32,
      "max": [
        3.6979260444641113,
        3.7876479625701904,
        -1.0948879718780518
      ],
      "min": [
        -3.6979260444641113,
        -34.05783462524414,
        -1.0948879718780518
      ],
      "type": "VEC3"
    },
    {
      "bufferView": 2,
      "byteOffset": 391296,
      "componentType": 5126,
      "count": 32,
      "max": [
        0.0,
        -0.0,
        1.0
      ],
      "min": [
        0.0,
        -0.0,
        1.0
      ],
      "type": "VEC3"
    },
    {
      "bufferView": 1,
      "byteOffset": 130304,
      "componentType": 5126,
      "count": 32,
      "max": [
        0.3524650037288666,
        1.7414840459823608
      ],
      "min": [
        0.14362700283527374,
        -0.7435640096664429
      ],
      "type": "VEC2"
    },
    {
      "bufferView": 0,
      "byteOffset": 97728,
      "componentType": 5125,
      "count": 48,
      "type": "SCALAR"
    },
    {
      "bufferView": 2,
      "byteOffset": 391680,
      "componentType": 5126,
      "count": 1472,
      "max": [
        15.753416061401367,
        15.889695167541504,
        0.14874400198459625
      ],
      "min": [
        -13.821818351745605,
        -43.97892379760742,
        -0.17680999636650085
      ],
      "type": "VEC3"
    },
    {
      "bufferView": 2,
      "byteOffset": 409344,
      "componentType": 5126,
      "count": 1472,
      "max": [
        1.0,
        1.0,
        0.0
      ],
      "min": [
        -1.0,
        -1.0,
        0.0
      ],
      "type": "VEC3"
    },
    {
      "bufferView": 1,
      "byteOffset": 130560,
      "componentType": 5126,
      "count": 1472,
      "max": [
        0.3369799852371216,
        -1.3928289413452148
      ],
      "min": [
        0.3369790017604828,
        -1.3928309679031372
      ],
      "type": "VEC2"
    },
    {
      "bufferView": 0,
      "byteOffset": 97920,
      "componentType": 5125,
      "count": 2208,
      "type": "SCALAR"
    },
    {
      "bufferView": 2,
      "byteOffset": 427008,
      "componentType": 5126,
      "count": 5376,
      "max": [
        13.661897659301758,
        13.798176765441895,
        0.9432929754257202
      ],
      "min": [
        -15.907827377319336,
        -46.06493377685547,
        -0.4526880085468292
      ],
      "type": "VEC3"
    },
    {
      "bufferView": 2,
      "byteOffset": 491520,
      "componentType": 5126,
      "count": 5376,
      "max": [
        1.0,
        1.0,
        0.0
      ],
      "min": [
        -1.0,
        -1.0,
        0.0
      ],
      "type": "VEC3"
    },
    {
      "bufferView": 1,
      "byteOffset": 142336,
      "componentType": 5126,
      "count": 5376,
      "max": [
        5.2929229736328125,
        0.5000010132789612
      ],
      "min": [
        4.291567802429199,
        0.4999989867210388
      ],
      "type": "VEC2"
    },
    {
      "bufferView": 0,
      "byteOffset": 106752,
      "componentType": 5125,
      "count": 8064,
      "type": "SCALAR"
    },
    {
      "bufferView": 2,
      "byteOffset": 556032,
      "componentType": 5126,
      "count": 352,
      "max": [
        15.89314079284668,
        15.34958553314209,
        -0.9862419962882996
      ],
      "min": [
        -16.65704917907715,
        -45.527740478515625,
        -1.0948879718780518
      ],
      "type": "VEC3"
    },
    {
      "bufferView": 2,
      "byteOffset": 560256,
      "componentType": 5126,
      "count": 352,
      "max": [
        1.0,
        1.0,
        1.0
      ],
      "min": [
        -1.0,
        -1.0,
        0.0
      ],
      "type": "VEC3"
    },
    {
      "bufferView": 3,
      "byteOffset": 260608,
      "componentType": 5126,
      "count": 352,
      "max": [
        1.0,
        1.0,
        1.0,
        1.0
      ],
      "min": [
        -1.0,
        -1.0,
        -1.0,
        -1.0
      ],
      "type": "VEC4"
    },
    {
      "bufferView": 1,
      "byteOffset": 185344,
      "componentType": 5126,
      "count": 352,
      "max": [
        6.2134528160095215,
        1.013416051864624
      ],
      "min": [
        -5.061110973358154,
        -0.013415999710559845
      ],
      "type": "VEC2"
    },
    {
      "bufferView": 0,
      "byteOffset": 139008,
      "componentType": 5125,
      "count": 528,
      "type": "SCALAR"
    },
    {
      "bufferView": 2,
      "byteOffset": 564480,
      "componentType": 5126,
      "count": 40,
      "max": [
        15.893138885498047,
        15.349583625793457,
        -1.0948879718780518
      ],
      "min": [
        -16.65704917907715,
        -45.527740478515625,
        -1.0948879718780518
      ],
      "type": "VEC3"
    },
    {
      "bufferView": 2,
      "byteOffset": 564960,
      "componentType": 5126,
      "count": 40,
      "max": [
        0.0,
        -0.0,
        1.0
      ],
      "min": [
        0.0,
        -0.0,
        1.0
      ],
      "type": "VEC3"
    },
    {
      "bufferView": 3,
      "byteOffset": 266240,
      "componentType": 5126,
      "count": 40,
      "max": [
        1.0,
        1.0,
        0.0,
        1.0
      ],
      "min": [
        -1.0,
        0.0,
        0.0,
        1.0
      ],
      "type": "VEC4"
    },
    {
      "bufferView": 1,
      "byteOffset": 188160,
      "componentType": 5126,
      "count": 40,
      "max": [
        3.9435439109802246,
        1.0053770542144775
      ],
      "min": [
        -3.925395965576172,
        -0.006653000134974718
      ],
      "type": "VEC2"
    },
    {
      "bufferView": 0,
      "byteOffset": 141120,
      "componentType": 5125,
      "count": 60,
      "type": "SCALAR"
    }
  ],
  "asset": {
    "extras": {
      "author": "Miguel-Angel (https://sketchfab.com/Miguel-Angel)",
      "license": "CC-BY-4.0 (http://creativecommons.org/licenses/by/4.0/)",
      "source": "https://sketchfab.com/3d-models/road-intersection-896442019d0d401d91ed367c996954b2",
      "title": "Road Intersection"
    },
    "generator": "Sketchfab-15.37.0",
    "version": "2.0"
  },
  "bufferViews": [
    {
      "buffer": 0,
      "byteLength": 141360,
      "name": "floatBufferViews",
      "target": 34963
    },
    {
      "buffer": 0,
      "byteLength": 188480,
      "byteOffset": 141360,
      "byteStride": 8,
      "name": "floatBufferViews",
      "target": 34962
    },
    {
      "buffer": 0,
      "byteLength": 565440,
      "byteOffset": 329840,
      "byteStride": 12,
      "name": "floatBufferViews",
      "target": 34962
    },
    {
      "buffer": 0,
      "byteLength": 266880,
      "byteOffset": 895280,
      "byteStride": 16,
      "name": "floatBufferViews",
      "target": 34962
    }
  ],
  "buffers": [
    {
      "byteLength": 1162160,
      "uri": "scene.bin"
    }
  ],
  "images": [
    {
      "uri": "textures/Material_baseColor.jpeg"
    },
    {
      "uri": "textures/Material_metallicRoughness.png"
    },
    {
      "uri": "textures/Material_normal.png"
    },
    {
      "uri": "textures/Material.001_baseColor.jpeg"
    },
    {
      "uri": "textures/acera_baseColor.jpeg"
    },
    {
      "uri": "textures/acera_metallicRoughness.png"
    },
    {
      "uri": "textures/acera_normal.png"
    },
    {
      "uri": "textures/pabimento_baseColor.jpeg"
    },
    {
      "uri": "textures/pabimento_metallicRoughness.png"
    },
    {
      "uri": "textures/pabimento_normal.png"
    }
  ],
  "materials": [
    {
      "doubleSided": true,
      "name": "Material",
      "normalTexture": {
        "index": 2,
        "scale": 0.2006065094981521
      },
      "pbrMetallicRoughness": {
        "baseColorTexture": {
          "index": 0
        },
        "metallicFactor": 0.0,
        "metallicRoughnessTexture": {
          "index": 1
        }
      }
    },
    {
      "doubleSided": true,
      "name": "Material.001",
      "pbrMetallicRoughness": {
        "baseColorTexture": {
          "index": 3
        },
        "metallicFactor": 0.0,
        "roughnessFactor": 0.5
      }
    },
    {
      "doubleSided": true,
      "name": "Material.002",
      "pbrMetallicRoughness": {
        "roughnessFactor": 0.0
      }
    },
    {
      "doubleSided": true,
      "name": "Material.003",
      "pbrMetallicRoughness": {
        "roughnessFactor": 0.0
      }
    },
    {
      "doubleSided": true,
      "name": "acera",
      "normalTexture": {
        "index": 6
      },
      "pbrMetallicRoughness": {
        "baseColorTexture": {
          "index": 4
        },
        "metallicFactor": 0.0,
        "metallicRoughnessTexture": {
          "index": 5
        }
      }
    },
    {
      "doubleSided": true,
      "name": "pabimento",
      "normalTexture": {
        "index": 9,
        "scale": 0.3199030367134572
      },
      "pbrMetallicRoughness": {
        "baseColorTexture": {
          "index": 7
        },
        "metallicFactor": 0.0,
        "metallicRoughnessTexture": {
          "index": 8
        }
      }
    }
  ],
  "meshes": [
    {
      "name": "Object_0",
      "primitives": [
        {
          "attributes": {
            "NORMAL": 1,
            "POSITION": 0,
            "TANGENT": 2,
            "TEXCOORD_0": 3
          },
          "indices": 4,
          "material": 0,
          "mode": 4
        }
      ]
    },
    {
      "name": "Object_1",
      "primitives": [
        {
          "attributes": {
            "NORMAL": 6,
            "POSITION": 5,
            "TANGENT": 7,
            "TEXCOORD_0": 8
          },
          "indices": 9,
          "material": 0,
          "mode": 4
        }
      ]
    },
    {
      "name": "Object_2",
      "primitives": [
        {
          "attributes": {
            "NORMAL": 11,
            "POSITION": 10,
            "TEXCOORD_0": 12
          },
          "indices": 13,
          "material": 1,
          "mode": 4
        }
      ]
    },
    {
      "name": "Object_3",
      "primitives": [
        {
          "attributes": {
            "NORMAL": 15,
            "POSITION": 14,
            "TEXCOORD_0": 16
          },
          "indices": 17,
          "material": 2,
          "mode": 4
        }
      ]
    },
    {
      "name": "Object_4",
      "primitives": [
        {
          "attributes": {
            "NORMAL": 19,
            "POSITION": 18,
            "TEXCOORD_0": 20
          },
          "indices": 21,
          "material": 3,
          "mode": 4
        }
      ]
    },
    {
      "name": "Object_5",
      "primitives": [
        {
          "attributes": {
            "NORMAL": 23,
            "POSITION": 22,
            "TANGENT": 24,
            "TEXCOORD_0": 25
          },
          "indices": 26,
          "material": 4,
          "mode": 4
        }
      ]
    },
    {
      "name": "Object_6",
      "primitives": [
        {
          "attributes": {
            "NORMAL": 28,
            "POSITION": 27,
            "TANGENT": 29,
            "TEXCOORD_0": 30
          },
          "indices": 31,
          "material": 5,
          "mode": 4
        }
      ]
    }
  ],
  "nodes": [
    {
      "children": [
        1
      ],
      "matrix": [
        3.744196653366089,
        0.0,
        0.0,
        0.0,
        0.0,
        8.313786666582976e-16,
        -3.744196653366089,
        0.0,
        0.0,
        3.744196653366089,
        8.313786666582976e-16,
        0.0,
        0.0,
        0.0,
        0.0,
        1.0
      ],
      "name": "Sketchfab_model"
    },
    {
      "children": [
        2,
        3,
        4,
        5,
        6,
        7,
        8
      ],
      "name": "rotonda.obj.cleaner.materialmerger.gles"
    },
    {
      "mesh": 0,
      "name": "Object_2"
    },
    {
      "mesh": 1,
      "name": "Object_3"
    },
    {
      "mesh": 2,
      "name": "Object_4"
    },
    {
      "mesh": 3,
      "name": "Object_5"
    },
    {
      "mesh": 4,
      "name": "Object_6"
    },
    {
      "mesh": 5,
      "name": "Object_7"
    },
    {
      "mesh": 6,
      "name": "Object_8"
    }
  ],
  "samplers": [
    {
      "magFilter": 9729,
      "minFilter": 9987,
      "wrapS": 10497,
      "wrapT": 10497
    }
  ],
  "scene": 0,
  "scenes": [
    {
      "name": "Sketchfab_Scene",
      "nodes": [
        0
      ]
    }
  ],
  "textures": [
    {
      "sampler": 0,
      "source": 0
    },
    {
      "sampler": 0,
      "source": 1
    },
    {
      "sampler": 0,
      "source": 2
    },
    {
      "sampler": 0,
      "source": 3
    },
    {
      "sampler": 0,
      "source": 4
    },
    {
      "sampler": 0,
      "source": 5
    },
    {
      "sampler": 0,
      "source": 6
    },
    {
      "sampler": 0,
      "source": 7
    },
    {
      "sampler": 0,
      "source": 8
    },
    {
      "sampler": 0,
      "source": 9
    }
  ]
}
